<svg xmlns="http://www.w3.org/2000/svg" viewBox="0 0 300 300"><path fill="#4C4C4C" d="M149.7 213l-9.1 6.1v-9.7l5.2-6.3c.5-12 .3-29.6-.7-40.4l-.9-10.7c-.3-4.1-.1-5.6.4-9.5 0-.3 2.9-25.3 2.7-33.1-.1-3.5-2-5.2-3.3-6.7-.9-.8-1.6-1.6-1.7-2.5v-.1l7.6-19.2 7.6 19.2v.1c-.1.9-.8 1.6-1.7 2.5-1.5 1.5-3.2 3.2-3.3 6.7-.3 7.6 2.7 32.8 2.7 33.1.4 4 .5 5.5.4 9.5l-.9 10.7c-.9 10.7-1.3 28.3-.8 40.3l5.3 6.4v9.7l-9.5-6.1z"/><path fill="#1D1D1B" d="M149.7 82.2l7.2 18.3c-.1 2.1-4.8 3.5-5.1 9.2-.3 7.7 2.7 33.1 2.7 33.1.4 4 .5 5.5.4 9.5L154 163c-1.1 11.2-1.3 29.1-.7 40.4l5.3 6.3v8.9l-8.7-5.9-8.7 5.9v-8.9l5.2-6.3c.5-11.3.3-29.3-.7-40.5l-.9-10.7c-.3-4-.1-5.5.4-9.5 0 0 2.9-25.3 2.7-33.1-.3-5.7-4.9-7.1-5.1-9.2l6.9-18.2m0-1.9l-.7 1.6-7.2 18.3v.2c.1 1.1.9 1.9 1.9 2.7 1.3 1.3 3.2 3.1 3.3 6.4.3 7.6-2.7 32.7-2.7 32.9-.4 4-.5 5.5-.4 9.6l.9 10.8c.9 10.7 1.3 28.3.8 40.3l-5.1 6-.1.1v10.4l1.1-.7 8.4-5.6 8.4 5.6 1.1.7v-10.4l-.1-.1-5.6-6.1c-.5-11.9-.3-29.5.8-40.1l.9-10.7c.3-4.1.1-5.6-.4-9.6 0-.3-2.9-25.3-2.7-32.9.1-3.3 1.9-5.1 3.3-6.4.9-.9 1.7-1.7 1.9-2.7v-.2l-7.2-18.3-.6-1.8z"/><path fill="#1D1D1B" d="M153.2 203.3c-.5-11.3-.4-29.2.7-40.4l.9-10.7c.3-4 .1-5.5-.4-9.5 0 0-2.9-25.3-2.7-33.1.3-5.7 4.9-7.1 5.1-9.2l-7.1-18.3v130.4l8.8 5.9v-8.9l-5.3-6.2z"/><g><circle fill="#333" cx="149.7" cy="148.3" r="7.3"/><circle fill="#E9DED4" cx="149.7" cy="148.3" r="5.9"/><path fill="#D3B490" d="M149.7 142.5c3.3 0 5.9 2.7 5.9 5.9s-2.7 5.9-5.9 5.9v-11.8z"/></g></svg>