<svg xmlns="http://www.w3.org/2000/svg" viewBox="0 0 300 300"><g stroke="#734D22"><circle fill="#E9DED4" stroke-width="3.133" cx="150" cy="150" r="83.9"/><circle fill="none" stroke-width="3.17" cx="150" cy="150" r="77.1"/><circle fill="none" stroke-width="3.17" cx="150" cy="150" r="77.1"/><circle fill="none" stroke-width=".906" cx="150" cy="150" r="64.9"/><circle fill="none" stroke-width="1.618" cx="150" cy="150" r="48.9"/><circle fill="none" stroke-width="1.358" cx="150" cy="150" r="41.1"/></g><ellipse transform="translate(-.194 .33)" fill="#734D22" cx="162.3" cy="95.9" rx="2" ry="2"/><path fill="none" stroke="#734D22" stroke-width=".906" d="M162 97.2l-2.5 12.7"/><ellipse transform="rotate(-71.277 178.9 102.907)" fill="#734D22" cx="178.9" cy="102.9" rx="2" ry="2"/><path fill="none" stroke="#734D22" stroke-width=".906" d="M178.4 104l-6.6 11.1"/><ellipse transform="rotate(-45.685 119.924 103.3)" fill="#734D22" cx="119.9" cy="103.3" rx="2" ry="2"/><path fill="none" stroke="#734D22" stroke-width=".906" d="M120.7 104.4l6.7 11.5"/><ellipse transform="rotate(-26.84 136.695 96.095)" fill="#734D22" cx="136.7" cy="96.1" rx="2" ry="2"/><path fill="none" stroke="#734D22" stroke-width=".906" d="M137.1 97.4l3.5 12.5"/><ellipse transform="matrix(.0096 -1 1 .0096 -42.02 231.988)" fill="#734D22" cx="96.1" cy="137.2" rx="2" ry="2"/><path fill="none" stroke="#734D22" stroke-width=".906" d="M97.4 137.5l12.6 2.7"/><ellipse transform="rotate(-70.61 103.34 120.334)" fill="#734D22" cx="103.3" cy="120.3" rx="2" ry="2"/><path fill="none" stroke="#734D22" stroke-width=".906" d="M104.6 121l10.8 6.6"/><ellipse transform="rotate(-44.9 103.197 180.02)" fill="#734D22" cx="103.2" cy="180" rx="2" ry="2"/><path fill="none" stroke="#734D22" stroke-width=".906" d="M104.3 179.2l10.7-6.9"/><ellipse transform="rotate(-26.06 96.113 163)" fill="#734D22" cx="96.1" cy="163" rx="2" ry="2"/><path fill="none" stroke="#734D22" stroke-width=".906" d="M97.4 162.6l11.8-3.4"/><g><ellipse transform="matrix(.0123 -.9999 .9999 .0123 -68.985 338.3)" fill="#734D22" cx="136.8" cy="204.1" rx="2" ry="2"/><path fill="none" stroke="#734D22" stroke-width=".906" d="M137 202.7l2.2-12.7"/></g><g><ellipse transform="rotate(-70.453 119.995 196.747)" fill="#734D22" cx="120" cy="196.8" rx="2" ry="2"/><path fill="none" stroke="#734D22" stroke-width=".906" d="M120.7 195.6l6.7-10.6"/></g><g><ellipse transform="rotate(-44.863 179.198 197.232)" fill="#734D22" cx="179.2" cy="197.2" rx="2" ry="2"/><path fill="none" stroke="#734D22" stroke-width=".906" d="M178.4 196l-6.9-11"/></g><g><ellipse transform="rotate(-26.022 162.393 204.097)" fill="#734D22" cx="162.4" cy="204.1" rx="2" ry="2"/><path fill="none" stroke="#734D22" stroke-width=".906" d="M162 202.8l-2.6-12.4"/></g><g><ellipse transform="rotate(-88.628 203.532 163.692)" fill="#734D22" cx="203.5" cy="163.7" rx="2" ry="2"/><path fill="none" stroke="#734D22" stroke-width=".906" d="M202.2 163.4l-12.4-2.7"/></g><g><ellipse transform="rotate(-69.788 195.93 180.307)" fill="#734D22" cx="195.9" cy="180.3" rx="2" ry="2"/><path fill="none" stroke="#734D22" stroke-width=".906" d="M194.8 179.8l-10.4-6.8"/></g><g><ellipse transform="rotate(-44.077 197.124 120.71)" fill="#734D22" cx="197.1" cy="120.7" rx="2" ry="2"/><path fill="none" stroke="#734D22" stroke-width=".906" d="M195.9 121.5l-10.7 7.1"/></g><g><ellipse transform="rotate(-25.24 203.903 137.9)" fill="#734D22" cx="203.9" cy="137.9" rx="2" ry="2"/><path fill="none" stroke="#734D22" stroke-width=".906" d="M202.6 138.3l-12.7 1.6"/></g><g><path fill="#D3B490" stroke="#734D22" stroke-width=".906" d="M187.1 82.6l-5.4 16.5 13-11.6c.1 0-4.8-3.6-7.6-4.9z"/><path fill="#734D22" d="M181.8 99.1l13-11.6s-1.7-1.2-3.6-2.5l-9.4 14.1z"/><path fill="#734D22" d="M183.6 97.1c-.3-.4-.5-.8-.9-.9 0 0-.1 0 0 0 .1.4.4.8.9.9 0 .1 0 .1 0 0zM183.9 96.2c-.3-.4-.5-.7-.9-.9.1.3.4.6.9.9zM184.6 95.5c-.3-.4-.7-.9-1.2-1.1 0 0-.1 0 0 .1 0 .5.5.7 1.2 1-.2.1 0 0 0 0zM184.8 94.7c-.4-.4-.8-.8-1.3-1.2 0 0-.1 0 0 0 .4.5.7.9 1.3 1.2 0 .1.1 0 0 0zM185.4 93.9c-.4-.5-1.1-1.1-1.6-1.2 0 0-.1 0 0 .1.1.4.8.8 1.6 1.1zM185.9 93.1c-.5-.5-1.1-.9-1.7-1.2.4.4.9.9 1.7 1.2zM186.4 92.3c-.5-.5-1.3-1.3-2.1-1.5 0 0-.1 0 0 .1.6.5 1.3 1 2.1 1.4 0 .1.2 0 0 0zM187.1 91.5c-.3-.4-.7-.7-1.1-.9-.4-.3-1.1-.5-1.5-.9 0 0-.1 0 0 0 .1.4.7.5.9.8.5.3 1 .7 1.7 1 0 .1 0 0 0 0zM187.6 90.7c-.7-.8-1.7-1.5-2.5-1.9 0 0-.1 0 0 .1.4.4.8.7 1.2.9.3.4.8.6 1.3.9zM187.9 89.4c-.5-.8-1.6-1.5-2.5-1.9 0 0-.1 0 0 .1.3.4.8.7 1.2.9.5.3.8.6 1.3.9 0 .1 0 0 0 0zM188.8 88.6c-.4-.4-.9-.8-1.3-1.1-.4-.3-.8-.7-1.3-.9 0 0-.1 0 0 .1.4.4.8.7 1.2 1.1.4.2.7.6 1.4.8 0 .1 0 0 0 0zM189.1 87.5c-.4-.4-.8-.7-1.3-1.1s-.9-.8-1.6-1.1c-.1 0-.1 0-.1.1.4.4.9.7 1.3 1.1.7.3 1.2.7 1.7 1 0 .1 0 0 0 0zM189.9 86.4c-.5-.4-1.1-.8-1.6-1.2-.5-.4-1.2-.8-1.7-1.1.4.5.9.8 1.5 1.2.5.5 1 .7 1.8 1.1-.1.2 0 0 0 0zM190.4 85.4c-.5-.5-1.2-.9-1.7-1.2-.7-.4-1.2-.8-1.9-1.1 0 0-.1 0 0 .1.5.5 1.1.8 1.7 1.1.6.4 1.3.8 1.9 1.1 0 .1.2 0 0 0z"/><g><path fill="#D3B490" stroke="#734D22" stroke-width=".906" d="M163.1 74.2l.3 17.5 8.5-15.2c0-.2-5.7-2.1-8.8-2.3z"/><path fill="#734D22" d="M163.4 91.5l8.5-15.2s-2.1-.7-4.3-1.2l-4.2 16.4z"/><path fill="#734D22" d="M164.6 89c-.4-.3-.7-.5-1.2-.7 0 0-.1 0 0 .1.2.4.7.6 1.2.6 0 .1 0 .1 0 0zM164.4 88c-.4-.3-.7-.4-1.1-.5.3.3.6.4 1.1.5.2 0 .2 0 0 0zM164.8 87.2c-.4-.3-.9-.7-1.5-.7v.1c.5.4.9.5 1.5.6 0 .2.1 0 0 0zM164.9 86.3c-.5-.3-1.1-.5-1.6-.7 0 0-.1 0 0 .1.5.3.9.6 1.6.6 0 .1.2 0 0 0zM165.1 85.4c-.5-.4-1.3-.7-2-.7 0 0-.1.1 0 .1.7.3 1.3.6 2 .6 0 .1 0 0 0 0zM165.4 84.4c-.7-.3-1.3-.5-2-.7.5.5 1.2.7 2 .7zM165.6 83.5c-.7-.4-1.7-.8-2.5-.8v.1c.8.3 1.7.7 2.5.7 0 .1.2.1 0 0zM165.9 82.6c-.4-.3-.9-.4-1.3-.5-.5-.1-1.1-.1-1.6-.4 0 0-.1 0 0 0 .3.3.7.4 1.1.4.5.2 1.3.5 1.8.5 0 .1 0 0 0 0zM166.2 81.6c-.8-.5-2.1-.9-3.1-.9v.1c.5.3.9.4 1.5.5.5.1 1.2.3 1.6.3zM166.1 80.3c-.8-.5-2-.9-2.9-.9v.1c.4.3.9.4 1.3.5.6 0 1.1.2 1.6.3 0 0 .1 0 0 0zM166.6 79.2c-.5-.3-1.1-.4-1.6-.5s-1.1-.4-1.6-.4v.1c.4.3 1.1.4 1.5.5.5.2 1 .3 1.7.3 0 .2 0 0 0 0zM166.6 78c-.5-.3-1.1-.4-1.7-.5-.5-.1-1.2-.4-1.7-.4-.1 0-.1.1 0 .1.5.3 1.1.4 1.6.5.6.2 1.1.3 1.8.3 0 .2.2 0 0 0zM166.9 76.8c-.7-.3-1.2-.4-1.9-.5s-1.3-.4-2-.4c.9.7 2.6.8 3.9.9 0 .2 0 0 0 0zM167.1 75.6c-1.2-.5-2.8-.9-4.3-.9 0 0-.1.1 0 .1.7.3 1.3.4 2 .5.8.2 1.6.3 2.3.3 0 .2 0 .2 0 0z"/></g><g><path fill="#D3B490" stroke="#734D22" stroke-width=".906" d="M127.4 76.3l8.1 15.5.7-17.5c-.1 0-6.1.9-8.8 2z"/><path fill="#734D22" d="M135.4 91.8l.7-17.5s-2.1.4-4.4.9l3.7 16.6z"/><path fill="#734D22" d="M135.1 89c-.4-.1-.9-.1-1.3 0v.1c.6.1 1 0 1.3-.1.3.1.3 0 0 0zM134.6 88.2c-.4 0-.8-.1-1.3 0v.1c.6 0 .9 0 1.3-.1.2 0 .2 0 0 0zM134.6 87.2c-.5-.1-1.1-.1-1.6.1v.2c.6 0 1.1 0 1.6-.3 0 .2 0 0 0 0zM134.4 86.4c-.5 0-1.2 0-1.7.1v.1c.5.1 1.2 0 1.7-.2 0 .2 0 0 0 0zM134.1 85.5c-.7 0-1.5 0-2 .4v.1c.5-.1 1.3-.2 2-.5zM133.9 84.6c-.7 0-1.5.1-2.1.4.8 0 1.3-.2 2.1-.4zM133.8 83.6c-.8 0-1.9 0-2.5.4v.1c.6-.1 1.6-.1 2.5-.5.1.2 0 0 0 0zM133.6 82.6c-1.1-.1-2 .4-3.1.5v.1c.4.1.9 0 1.3-.1.6-.1 1.3-.3 1.8-.5 0 .1 0 0 0 0zM133.4 81.6c-.9 0-2.3.1-3.1.5v.1c.8.1 2.1-.2 3.1-.6 0 .2 0 0 0 0zM132.6 80.4c-.9-.1-2.1.1-3.1.5v.1c.5 0 .9-.1 1.5-.1.6-.2 1.1-.2 1.6-.5.2.2.2 0 0 0zM132.6 79.4c-.5 0-1.2.1-1.7.3-.5.1-1.1.1-1.6.4v.1c.5 0 1.1-.1 1.6-.1.7-.3 1.2-.5 1.7-.7.2 0 0 0 0 0zM132.1 78.3c-.5 0-1.1.1-1.6.3-.7.1-1.2.1-1.9.4-.1 0-.1.1 0 .1.5 0 1.1-.1 1.6-.3.7-.1 1.4-.2 1.9-.5.1 0 .1 0 0 0zM131.9 77.1c-.7 0-1.3.1-2 .4-.7.1-1.3.3-2 .5 1.3.1 2.8-.5 4-.9 0 .1 0 0 0 0zM131.4 75.9c-1.3.1-2.9.4-4.3 1.1v.1c.7 0 1.3-.3 2-.4 1-.3 1.7-.4 2.3-.8.2.1.2 0 0 0z"/></g><g><path fill="#D3B490" stroke="#734D22" stroke-width=".906" d="M105.1 87.2l12.7 12-4.8-16.8c-.2.2-5.7 3-7.9 4.8z"/><path fill="#734D22" d="M117.8 99.4L113 82.6s-1.9 1.1-3.9 2.3l8.7 14.5z"/><path fill="#734D22" d="M116.7 96.8c-.4 0-.9.1-1.2.4v.1c.3-.1.7-.2 1.2-.5zM115.8 96.2c-.4.1-.8.1-1.2.4v.1c.5-.1.8-.3 1.2-.5zM115.4 95.4c-.5.1-1.1.3-1.5.7v.1c.7-.3 1.2-.6 1.5-.8.2 0 .2 0 0 0zM114.9 94.6c-.5.1-1.2.4-1.6.8v.1c.5-.3 1.3-.5 1.6-.9.2.1.2 0 0 0zM114.3 93.9c-.7.1-1.3.5-1.9.9v.1c.8-.2 1.4-.6 1.9-1 .3 0 0-.1 0 0zM113.9 93c-.7.3-1.3.5-1.9 1.1.8-.2 1.4-.6 1.9-1.1zM113.4 92.2c-.8.3-1.7.5-2.3 1.2 0 0 0 .1.1.1.7-.4 1.6-.8 2.2-1.3.2.1.2 0 0 0zM113.1 91.2c-.5.1-.9.4-1.3.5-.5.3-.9.7-1.5.9v.1c.4 0 .8-.3 1.2-.5.4-.2 1.1-.4 1.6-1 0 .2 0 0 0 0zM112.6 90.4c-.9.3-2.1.8-2.8 1.5v.1c.5-.1.9-.4 1.5-.7.3-.3.9-.5 1.3-.9.1 0 0 0 0 0zM111.4 89.5c-.9.1-2 .8-2.8 1.5v.1c1.2-.4 2.1-1.1 2.8-1.6.2 0 .2 0 0 0zM111.1 88.4c-.5.1-1.1.5-1.6.8s-.9.5-1.3.8v.1c.5-.1 1.1-.4 1.5-.7.5-.2 1-.4 1.4-1 .1 0 .1 0 0 0zM110.2 87.6c-.5.1-1.1.5-1.6.8s-1.1.5-1.5.9c-.1 0 0 .1.1.1.5-.1 1.1-.5 1.5-.8.6-.3 1.1-.6 1.5-1 .1 0 .1-.1 0 0zM109.6 86.6c-.7.3-1.2.5-1.7.9s-1.2.7-1.7 1.2c.7-.1 1.2-.5 1.7-.9.7-.3 1.2-.7 1.7-1.2.2.1.2 0 0 0zM108.9 85.6c-.7.3-1.3.7-1.9 1.1-.5.4-1.2.8-1.7 1.3v.1c.7-.3 1.2-.7 1.7-1.1.8-.4 1.3-.8 1.9-1.4.2 0 .2-.1 0 0z"/></g><g><path fill="#D3B490" stroke="#734D22" stroke-width=".906" d="M82.8 112l16.4 5.6-11.4-13.2s-3.9 5-5 7.6z"/><path fill="#734D22" d="M99.2 117.6l-11.4-13.2s-1.3 1.7-2.5 3.6l13.9 9.6z"/><path fill="#734D22" d="M97.2 115.9c-.4.3-.8.5-.9.9 0 0 0 .1 0 0 .4-.2.8-.5.9-.9.1 0 .1-.1 0 0zM96.2 115.5c-.4.3-.7.5-.9.9.5-.1.6-.4.9-.9.1.1 0 0 0 0zM95.6 115c-.4.3-.9.7-1.1 1.2 0 0 0 .1.1 0 .5-.3.7-.7 1-1.2.2 0 .2 0 0 0zM94.8 114.6c-.4.4-.9.8-1.2 1.3 0 0 0 .1 0 0 .6-.3 1-.8 1.2-1.3.1 0 0 0 0 0zM93.9 114c-.5.4-1.1 1.1-1.2 1.6 0 0 0 .1.1 0 .5-.2 1-.9 1.1-1.6.3 0 0 0 0 0zM93.2 113.5c-.5.5-.9 1.1-1.2 1.7.6-.4.9-1 1.2-1.7zM92.3 113c-.5.5-1.3 1.3-1.5 2.1 0 0 0 .1.1 0 .5-.7 1.3-1.3 1.4-2.1.3 0 .3 0 0 0zM91.6 112.3c-.4.3-.7.7-.9 1.1-.3.4-.5 1.1-.9 1.5 0 0 0 .1 0 0 .4-.1.5-.7.8-.9.3-.6.8-1 1-1.7.2 0 .2 0 0 0zM90.8 111.8c-.8.7-1.5 1.7-1.9 2.5 0 0 0 .1.1 0 .4-.4.7-.8.9-1.2.3-.4.8-.8.9-1.3.1 0 0 0 0 0zM89.4 111.4c-.8.5-1.5 1.6-1.9 2.4 0 0 0 .1.1 0 .4-.3.7-.8.9-1.2.4-.3.8-.7.9-1.2.2 0 .2 0 0 0zM88.7 110.6c-.4.4-.8.9-1.1 1.3-.3.4-.7.8-.9 1.3 0 0 0 .1.1 0 .4-.4.7-.8 1.1-1.2.3-.4.7-.8.8-1.4.1 0 .1 0 0 0zM87.6 110.2c-.4.4-.7.8-1.1 1.3s-.8.9-1.1 1.6c0 .1 0 .1.1.1.4-.4.7-.8 1.1-1.3.5-.7.8-1.2 1-1.7.2 0 .2-.2 0 0zM86.6 109.5c-.4.5-.8 1.1-1.2 1.6-.4.5-.8 1.2-1.1 1.7.5-.4.8-.9 1.2-1.5s.7-1.1 1.1-1.8c.2 0 .1 0 0 0zM85.6 109c-.5.5-.9 1.2-1.3 1.7-.4.7-.8 1.2-1.1 1.9 0 0 0 .1.1 0 .5-.5.8-1.1 1.2-1.7.3-.6.7-1.3 1.1-1.9 0 0 0-.2 0 0z"/></g><g><path fill="#D3B490" stroke="#734D22" stroke-width=".906" d="M73.9 136l17.5-.1-15.2-8.7s-1.9 5.8-2.3 8.8z"/><path fill="#734D22" d="M91.4 135.9l-15.2-8.7s-.7 2-1.2 4.3l16.4 4.4z"/><path fill="#734D22" d="M88.9 134.8c-.3.4-.5.7-.7 1.2 0 0 0 .1.1 0 .5-.2.6-.9.6-1.2.2 0 .2 0 0 0zM87.8 135c-.3.4-.5.7-.7 1.1.7-.3.7-.7.7-1.1.1-.2.1-.2 0 0zM87.2 134.6c-.3.4-.7.9-.7 1.5 0 0 0 .1.1 0 .3-.5.5-1 .6-1.5.1 0 0-.2 0 0zM86.2 134.4c-.3.5-.5 1.1-.7 1.6 0 0 0 .1.1 0 .3-.4.6-1 .6-1.6.1 0 0-.2 0 0zM85.3 134.2c-.4.5-.7 1.3-.7 2 0 0 .1.1.1 0 .4-.6.6-1.2.6-2 .1-.1 0-.1 0 0zM84.3 133.9c-.3.7-.5 1.3-.7 2 .6-.5.7-1.3.7-2zM83.4 133.6c-.4.7-.9 1.7-.8 2.5h.1c.4-.7.7-1.5.7-2.5.2 0 .2 0 0 0zM82.6 133.4c-.3.4-.4.9-.5 1.3-.1.5-.1 1.1-.4 1.6 0 0 0 .1 0 0 .3-.3.4-.7.4-1.1.1-.6.5-1.2.5-1.8.1 0 0-.3 0 0zM81.6 133.1c-.5.8-.9 2-.9 3.1h.1c.3-.5.4-.9.5-1.5 0-.6.3-1.1.3-1.6.2 0 0 0 0 0zM80.2 133.1c-.5.8-.9 2-.9 2.9h.1c.3-.4.4-.9.5-1.3 0-.6.3-1.1.3-1.6.1 0 0 0 0 0zM79.2 132.6c-.3.5-.4 1.1-.5 1.6s-.4 1.1-.4 1.6h.1c.3-.4.4-1.1.5-1.5.2-.5.3-1.2.3-1.7.1 0 0 0 0 0zM77.9 132.6c-.3.5-.4 1.1-.7 1.7-.1.5-.4 1.2-.5 1.7 0 .1.1.1.1 0 .3-.4.4-1.1.5-1.6.5-.5.6-1.3.6-1.8.3 0 0 0 0 0zM76.8 132.2c-.3.7-.4 1.2-.7 1.9-.1.7-.4 1.3-.4 2 .9-1 1-2.5 1.1-3.9.1 0 .1 0 0 0zM75.8 132c-.5 1.2-.9 2.8-1.1 4.3 0 0 .1.1.1 0 .3-.7.4-1.3.5-2s.3-1.5.5-2.3z"/></g><g><path fill="#D3B490" stroke="#734D22" stroke-width=".906" d="M75.9 171.9l15.5-8-17.5-.9c0 .1 1 6.1 2 8.9z"/><path fill="#734D22" d="M91.4 163.9l-17.5-.9s.4 2.1.8 4.4l16.7-3.5z"/><path fill="#734D22" d="M88.7 164.1c-.1.4-.1.9 0 1.3h.1c.1-.4 0-.8-.1-1.3.1-.1 0-.1 0 0zM87.8 164.6c-.1.4-.1.8 0 1.3h.1c0-.4 0-.8-.1-1.3zM86.9 164.6c-.1.5-.1 1.1.1 1.6h.1c.1-.4.1-1.1-.2-1.6.2 0 0 0 0 0zM86.2 165c0 .5 0 1.2.1 1.7h.1c0-.6-.1-1.2-.2-1.7zM85.2 165.1c0 .7 0 1.5.3 2h.1c0-.5-.2-1.2-.4-2zM84.2 165.5c0 .7.1 1.5.4 2.1.1-.8 0-1.6-.4-2.1 0-.1 0-.1 0 0zM83.3 165.6c0 .8 0 1.9.4 2.5h.1c0-1-.2-1.7-.5-2.5.1-.1 0-.1 0 0zM82.2 165.8c-.1 1.1.4 2 .5 3.1h.1c.1-.4 0-.9-.1-1.3 0-.6-.1-1.4-.5-1.8.1-.2 0-.2 0 0zM81.3 165.9c-.1.9.1 2.3.5 3.1h.1c-.1-1-.1-2.2-.6-3.1zM80.2 166.6c-.1.9 0 2.1.4 3.1h.1c0-.5-.1-.9-.1-1.5-.3-.6-.4-1.1-.4-1.6zM79.1 166.6c0 .5.1 1.2.3 1.7.1.5.1 1.1.4 1.6h.1c0-.5-.1-1.1-.1-1.6-.4-.5-.5-1.2-.7-1.7zM77.8 167.1c0 .5.1 1.1.1 1.6.1.7.1 1.2.4 1.9 0 .1.1.1.1 0 0-.5-.1-1.1-.3-1.6.2-.8.1-1.4-.3-1.9.1-.1 0-.1 0 0zM76.8 167.4c0 .7.1 1.3.3 2 .1.7.3 1.3.5 2 .2-1.4-.5-2.8-.8-4 .1 0 0 0 0 0zM75.6 167.8c.1 1.3.4 2.9 1.1 4.3h.1c0-.7-.3-1.3-.4-2-.2-1-.6-1.7-.8-2.3.2-.2 0-.2 0 0z"/></g><g><path fill="#D3B490" stroke="#734D22" stroke-width=".906" d="M87.2 194.8l12-12.7-16.8 4.8c-.1.2 2.8 5.5 4.8 7.9z"/><path fill="#734D22" d="M99.2 182.1L82.4 187s1.1 1.9 2.3 3.9l14.5-8.8z"/><path fill="#734D22" d="M96.7 183.1c0 .4.1.9.4 1.2h.1c-.1-.3-.3-.7-.5-1.2.1 0 0 0 0 0zM95.9 184c.1.4.1.8.4 1.2h.1c-.1-.4-.2-.8-.5-1.2 0-.1 0 0 0 0zM95.2 184.2c.1.5.3 1.1.7 1.5h.1c-.2-.6-.4-1.1-.8-1.5.1 0 0 0 0 0zM94.3 185c.1.5.4 1.2.8 1.6h.1c0-.7-.3-1.2-.9-1.6.3-.2 0-.2 0 0zM93.8 185.5c.1.7.5 1.3.9 1.9h.1c-.2-.8-.6-1.4-1-1.9 0-.1 0-.1 0 0zM92.8 185.9c.3.7.5 1.3 1.1 1.9-.1-.7-.6-1.4-1.1-1.9.1 0 0 0 0 0zM91.9 186.4c.3.8.5 1.7 1.2 2.3 0 0 .1 0 .1-.1-.3-.7-.5-1.5-1.3-2.2.3-.2 0-.2 0 0zM91.2 186.8c.1.5.4.9.5 1.3.3.5.7.9.9 1.5h.2c0-.4-.3-.8-.5-1.2-.5-.5-.7-1-1.1-1.6 0-.2-.1 0 0 0zM90.2 187.4c.3.9.8 2.1 1.5 2.8h.1c-.1-.5-.4-.9-.7-1.5-.2-.6-.4-.9-.9-1.3 0-.3 0 0 0 0zM89.3 188.4c.1.9.8 2 1.5 2.8h.1c-.3-1.1-1.1-2.1-1.6-2.8.1-.2 0-.2 0 0zM88.2 188.8c.1.5.5 1.1.8 1.6s.5.9.8 1.3h.2c-.1-.5-.4-1.1-.7-1.5-.2-.6-.5-1.1-1.1-1.4.1-.2 0-.2 0 0zM87.4 189.6c.1.5.5 1.1.8 1.6s.5 1.1.9 1.5c0 .1.1 0 .1-.1-.1-.5-.5-1.1-.8-1.5-.2-.5-.6-1.1-1-1.5 0-.1 0-.1 0 0zM86.3 190.2c.3.7.5 1.2.9 1.7s.7 1.2 1.2 1.7c-.1-.7-.5-1.2-.9-1.7-.2-.5-.6-1.1-1.2-1.7.3-.1 0-.1 0 0zM85.4 191c.3.7.7 1.3 1.1 1.9.4.5.8 1.2 1.3 1.7h.1c-.3-.7-.7-1.2-1.1-1.7-.5-.8-.9-1.4-1.4-1.9 0-.2 0-.2 0 0z"/></g><g><path fill="#D3B490" stroke="#734D22" stroke-width=".906" d="M112.6 217.5l5.5-16.5-13.1 11.6c-.1 0 4.8 3.5 7.6 4.9z"/><path fill="#734D22" d="M117.9 201l-13.1 11.6s1.7 1.2 3.6 2.5l9.5-14.1z"/><path fill="#734D22" d="M116.2 203c.3.4.5.8.9.9 0 0 .1 0 0 0-.2-.4-.5-.8-.9-.9 0-.2 0-.2 0 0zM115.8 203.9c.3.4.5.7.9.9 0-.4-.5-.7-.9-.9zM115.2 204.6c.3.4.7.9 1.2 1.1 0 0 .1 0 0-.1-.2-.5-.6-.8-1.2-1 .1-.2 0 0 0 0zM114.9 205.4c.4.4.8.8 1.3 1.2 0 0 .1 0 0 0-.4-.6-.8-1-1.3-1.2 0-.3-.1 0 0 0zM114.3 206.1c.4.5 1.1 1.1 1.6 1.2 0 0 .1 0 0-.1-.1-.4-.8-.8-1.6-1.1zM113.8 207c.5.5 1.1.9 1.7 1.2-.3-.4-.9-1.1-1.7-1.2zM113.3 207.8c.5.5 1.3 1.3 2.1 1.5 0 0 .1 0 0-.1-.6-.6-1.2-1.1-2.1-1.4 0-.2-.1 0 0 0zM112.7 208.6c.3.4.7.7 1.1.9s1.1.5 1.5.9c0 0 .1 0 0 0-.1-.4-.7-.5-.9-.8-.6-.5-1.1-.8-1.7-1 0-.2 0 0 0 0zM112.2 209.4c.7.8 1.7 1.5 2.5 1.9 0 0 .1 0 0-.1-.4-.4-.8-.7-1.2-.9-.4-.4-.8-.7-1.3-.9zM111.8 210.6c.5.8 1.6 1.5 2.5 1.9 0 0 .1 0 0-.1-.3-.4-.8-.7-1.2-.9-.4-.4-.9-.5-1.3-.9zM110.9 211.5c.4.4.9.8 1.3 1.1s.8.7 1.3.9c0 0 .1 0 0-.1-.4-.4-.8-.7-1.2-1.1-.4-.3-.7-.7-1.4-.8 0-.1 0 0 0 0zM110.6 212.6c.4.4.8.7 1.3 1.1.5.4.9.8 1.6 1.1.1 0 .1 0 .1-.1-.4-.4-.9-.7-1.3-1.1-.7-.5-1.1-.8-1.7-1 0-.2 0 0 0 0zM109.8 213.6c.5.4 1.1.8 1.6 1.2s1.2.8 1.7 1.1c-.4-.5-.9-.8-1.5-1.2-.4-.5-.9-.7-1.8-1.1.1-.1 0 0 0 0zM109.3 214.6c.5.5 1.2.9 1.7 1.2.7.4 1.2.8 1.9 1.1 0 0 .1 0 0-.1-.5-.5-1.1-.8-1.7-1.1-.5-.3-1.3-.7-1.9-1.1 0 0-.1 0 0 0z"/></g><g><path fill="#D3B490" stroke="#734D22" stroke-width=".906" d="M135.9 225.9l-.1-17.5-8.7 15.2s5.7 1.9 8.8 2.3z"/><path fill="#734D22" d="M135.8 208.4l-8.7 15.2s2 .7 4.3 1.2l4.4-16.4z"/><path fill="#734D22" d="M134.6 211c.4.3.7.5 1.2.7 0 0 .1 0 0-.1-.2-.5-.7-.6-1.2-.6 0-.2 0-.2 0 0zM134.8 212c.4.3.7.5 1.1.7-.3-.6-.8-.7-1.1-.7-.2-.1-.2-.1 0 0zM134.4 212.6c.4.3.9.7 1.5.7 0 0 .1 0 0-.1l-1.5-.6s-.2 0 0 0zM134.2 213.6c.5.3 1.1.5 1.6.7 0 0 .1 0 0-.1-.4-.3-1-.6-1.6-.6 0-.1-.1 0 0 0zM134.1 214.6c.5.4 1.3.7 2 .7 0 0 .1-.1 0-.1-.7-.4-1.3-.6-2-.6-.2-.2-.2 0 0 0zM133.8 215.5c.7.3 1.3.5 2 .7-.7-.4-1.2-.7-2-.7zM133.4 216.4c.7.4 1.7.9 2.5.8v-.2c-.8-.2-1.5-.6-2.5-.6 0-.2 0-.2 0 0zM133.1 217.4c.4.3.9.4 1.3.5.5.1 1.1.1 1.6.4 0 0 .1 0 0 0-.3-.3-.7-.4-1.1-.4-.3-.3-1-.5-1.8-.5 0-.3 0 0 0 0zM132.9 218.2c.8.5 2 .9 3.1.9v-.1c-.5-.3-.9-.4-1.5-.5-.6.1-1.1-.3-1.6-.3 0-.1 0 0 0 0zM132.9 219.6c.8.5 2 .9 2.9.9v-.1c-.4-.3-.9-.4-1.3-.5-.6 0-1.1-.1-1.6-.3 0-.1 0 0 0 0zM132.6 220.6c.5.3 1.1.4 1.6.5s1.1.4 1.6.4v-.1c-.4-.3-1.1-.4-1.5-.5-.7-.1-1.2-.3-1.7-.3-.2 0-.2 0 0 0zM132.4 221.9c.5.3 1.1.4 1.7.7.5.1 1.2.4 1.7.5.1 0 .1-.1 0-.1-.4-.3-1.1-.4-1.6-.5-.4-.5-1.1-.6-1.8-.6 0-.1 0 0 0 0zM132.1 223.1c.7.3 1.2.4 1.9.7.7.1 1.3.4 2 .4-.9-.8-2.6-1.1-3.9-1.1 0-.1 0-.1 0 0zM131.9 224.1c1.2.5 2.8.9 4.3 1.1 0 0 .1-.1 0-.1-.7-.3-1.3-.4-2-.5-.8-.2-1.6-.4-2.3-.5z"/></g><g><path fill="#D3B490" stroke="#734D22" stroke-width=".906" d="M171.8 223.9l-8-15.5-.9 17.5s6-.9 8.9-2z"/><path fill="#734D22" d="M163.8 208.4l-.9 17.5s2.1-.4 4.4-.8l-3.5-16.7z"/><path fill="#734D22" d="M163.9 211.1c.4.1.9.1 1.3 0v-.1c-.4 0-.8.1-1.3.1zM164.6 212c.4.1.8.1 1.3 0v-.1c-.5 0-1 0-1.3.1-.2 0-.2 0 0 0zM164.6 213c.5.1 1.1.1 1.6-.1v-.1c-.6-.2-1.1-.2-1.6.2-.2-.2-.2 0 0 0zM164.8 213.8c.5 0 1.2 0 1.7-.1v-.2c-.5-.1-1.2 0-1.7.1v.2zM165.1 214.6c.7 0 1.5 0 2-.3v-.1c-.7 0-1.3.2-2 .4zM165.4 215.6c.7 0 1.5-.1 2.1-.4-.9-.1-1.6.2-2.1.4-.3 0-.3 0 0 0zM165.4 216.6c.8 0 1.9 0 2.5-.4v-.1c-.8 0-1.7.1-2.5.5 0-.2 0 0 0 0zM165.6 217.6c1.1.1 2-.4 3.1-.5v-.1c-.4-.1-.9 0-1.3.1-.6 0-1.3.3-1.8.5-.2-.1-.2 0 0 0zM165.8 218.6c.9.1 2.3-.1 3.1-.5v-.1c-1 0-2.3.1-3.1.6zM166.4 219.8c.9.1 2.1 0 3.1-.4v-.1c-.5 0-.9.1-1.5.1-.6.1-1.1.2-1.6.4 0-.2 0 0 0 0zM166.4 220.8c.5 0 1.2-.1 1.7-.3.5-.1 1.1-.1 1.6-.4v-.1c-.5 0-1.1.1-1.6.1-.5.3-1.2.5-1.7.7zM166.9 222c.5 0 1.1-.1 1.6-.1.7-.1 1.2-.1 1.9-.4.1 0 .1-.1 0-.1-.5 0-1.1.1-1.6.3-.7-.2-1.4-.1-1.9.3-.1-.1-.1 0 0 0zM167.1 223.1c.7 0 1.3-.1 2-.3.7-.1 1.3-.3 2-.5-1.2-.2-2.7.5-4 .8 0-.1 0 0 0 0zM167.6 224.2c1.3-.1 2.9-.4 4.3-1.1v-.1c-.7 0-1.3.3-2 .4-.8.4-1.7.6-2.3.8-.2-.1-.2 0 0 0z"/></g><g><path fill="#D3B490" stroke="#734D22" stroke-width=".906" d="M194.1 213.1L181.6 201l4.7 16.8c-.1.1 5.5-2.7 7.8-4.7z"/><path fill="#734D22" d="M181.6 201l4.7 16.8s1.9-1.1 3.9-2.1l-8.6-14.7z"/><path fill="#734D22" d="M182.6 203.5c.4 0 .9-.1 1.3-.4v-.1c-.5.1-.8.1-1.3.5zM183.4 204.2c.4-.1.8-.1 1.2-.4v-.1c-.5.1-.8.2-1.2.5 0-.1 0 0 0 0zM183.8 205.1c.5-.1 1.1-.3 1.5-.5v-.1c-.7-.1-1.2.1-1.5.6-.2-.1 0 0 0 0zM184.2 205.8c.5-.1 1.2-.4 1.6-.7v-.1c-.4.1-1 .4-1.6.8-.1-.2 0 0 0 0zM184.8 206.6c.7-.1 1.3-.5 1.9-.9v-.2c-.8.1-1.3.5-1.9 1.1 0-.2 0 0 0 0zM185.4 207.4c.7-.3 1.3-.5 1.9-.9-.7.1-1.4.5-1.9.9-.3 0-.3 0 0 0zM185.8 208.1c.8-.3 1.9-.5 2.3-1.2 0 0 0-.1-.1-.1-.9.6-1.6.8-2.2 1.3-.2 0-.2 0 0 0zM186.1 209.1c.5-.1.9-.4 1.3-.5.5-.3.9-.7 1.5-.9v-.2c-.4 0-.8.3-1.2.5-.6.4-1.1.6-1.6 1.1zM186.6 210c.9-.3 2.1-.8 2.8-1.5v-.1c-.5.1-.9.4-1.5.7-.3.3-.8.5-1.3.9 0-.1 0 0 0 0zM187.8 211c.9-.1 2-.8 2.8-1.3v-.2c-1.2.3-2 .7-2.8 1.5-.2-.2-.2 0 0 0zM188.1 212c.5-.1 1.1-.5 1.6-.8s.9-.5 1.3-.8v-.1c-.5.1-1.1.4-1.5.7-.6.1-.9.5-1.4 1-.2-.1-.2 0 0 0zM188.9 212.8c.5-.1 1.1-.5 1.6-.8s1.1-.5 1.6-.9c.1 0 0-.1-.1-.1-.5.1-1.1.4-1.5.7-.6.3-1.1.5-1.6 1.1-.1-.2-.1 0 0 0zM189.6 213.8c.7-.3 1.2-.5 1.7-.9s1.2-.7 1.7-1.2c-.7.1-1.2.5-1.7.9-.7.4-1.2.8-1.7 1.2-.2 0-.2.1 0 0zM190.2 214.8c.7-.3 1.3-.7 1.9-1.1.7-.4 1.2-.8 1.7-1.2v-.1c-.7.3-1.2.7-1.7 1.1-.7.4-1.3.7-1.9 1.3-.1 0-.1 0 0 0z"/></g><g><path fill="#D3B490" stroke="#734D22" stroke-width=".906" d="M216.2 189.1l-16.4-5.9 11.3 13.3c0 .1 3.8-4.6 5.1-7.4z"/><path fill="#734D22" d="M199.9 183.1l11.3 13.3s1.3-1.7 2.7-3.6l-14-9.7z"/><path fill="#734D22" d="M201.9 185.1c.4-.3.8-.5.9-.9 0 0 0-.1 0 0-.4.2-.7.4-.9.9-.1 0 0 0 0 0zM202.9 185.5c.4-.3.7-.5.9-.8-.4-.1-.7.3-.9.8-.1-.1-.1 0 0 0zM203.4 186c.4-.3.9-.7 1.1-1.2 0 0 0-.1-.1 0-.3.3-.6.7-1 1.2zM204.2 186.4c.4-.4.9-.8 1.2-1.3 0 0 0-.1 0 0-.5.3-.8.8-1.2 1.3-.1 0 0 .2 0 0zM205.1 187c.5-.4 1.1-1.1 1.3-1.6 0 0 0-.1-.1 0-.4.4-.9.8-1.2 1.6zM205.9 187.5c.5-.5.9-1.1 1.3-1.7-.6.4-1.1 1-1.3 1.7zM206.6 188c.5-.5 1.3-1.3 1.6-2 0 0 0-.1-.1 0-.5.6-1.2 1.1-1.5 2 0 0 0 .1 0 0zM207.4 188.6c.4-.3.7-.7 1.1-1.1.3-.4.5-1.1.9-1.3 0 0 0-.1 0 0-.4.1-.5.5-.8.9-.5.5-.8 1-1.2 1.5zM208.2 189.4c.8-.5 1.6-1.6 2-2.5 0 0 0-.1-.1 0-.4.4-.8.8-1.1 1.3-.4.2-.6.6-.8 1.2-.1 0 0 0 0 0zM209.4 189.8c.8-.5 1.6-1.6 2-2.4 0 0 0-.1-.1 0-.4.3-.7.8-.9 1.2-.3.2-.6.5-1 1.2zM210.2 190.6c.4-.4.8-.9 1.2-1.5.3-.4.7-.8.8-1.2 0 0 0-.1-.1 0-.4.4-.8.8-1.1 1.3-.2.3-.4.8-.8 1.4zM211.4 191c.4-.4.8-.8 1.1-1.3.4-.5.8-.9 1.1-1.5 0-.1 0-.1-.1-.1-.4.4-.8.8-1.1 1.3-.5.5-.8 1-1 1.6 0 0 0 .1 0 0zM212.4 191.6c.4-.4.8-.9 1.2-1.5.4-.5.9-1.2 1.2-1.9 0 0 0-.1 0 0-.5.4-.8.9-1.2 1.5-.5.5-.8 1.3-1.2 1.9-.2 0 0 0 0 0zM213.4 192.2c.5-.5.9-1.1 1.3-1.7.4-.7.8-1.2 1.1-1.9 0 0 0-.1-.1 0-.5.5-.8 1.1-1.2 1.7-.4.7-.7 1.3-1.1 1.9z"/></g><g><path fill="#D3B490" stroke="#734D22" stroke-width=".906" d="M225.6 164.6h-17.5l15.1 8.8c-.1.1 1.9-5.6 2.4-8.8z"/><path fill="#734D22" d="M208.1 164.6l15.1 8.8s.7-2 1.3-4.3l-16.4-4.5z"/><path fill="#734D22" d="M210.6 165.8c.3-.4.5-.7.7-1.2 0 0 0-.1-.1 0-.3.2-.6.8-.6 1.2zM211.8 165.8c.3-.4.5-.7.7-1.1-.6.1-.7.4-.7 1.1-.2 0-.2 0 0 0zM212.4 166c.3-.4.7-.9.7-1.5 0 0 0-.1-.1 0-.4.5-.4 1-.6 1.5-.2 0 0 .1 0 0zM213.4 166.1c.3-.5.5-1.1.7-1.6 0 0 0-.1-.1 0-.4.5-.6 1.1-.6 1.6-.3 0 0 .1 0 0zM214.2 166.4c.4-.5.7-1.3.7-2 0 0-.1-.1-.1 0-.2.6-.6 1.4-.6 2-.1 0 0 0 0 0zM215.1 166.6c.3-.7.5-1.3.7-2-.4.5-.7 1.4-.7 2zM216.1 167c.4-.7.9-1.7.8-2.4 0 0-.1-.1-.1 0-.2.5-.7 1.4-.7 2.4-.2 0-.2 0 0 0zM217.1 167.4c.3-.4.4-.9.5-1.3.1-.5.1-1.1.4-1.6 0 0 0-.1 0 0-.3.3-.4.7-.4 1.1-.2.4-.5 1-.5 1.8-.2 0-.2 0 0 0zM217.9 167.6c.5-.8.9-2 .9-3.1h-.1c-.3.4-.4.9-.5 1.3 0 .6-.3 1.2-.3 1.8zM219.4 167.5c.5-.8.9-2 1.1-2.9h-.1c-.3.4-.4.9-.5 1.3-.3.7-.5 1.1-.5 1.6-.3.1 0 .1 0 0zM220.4 168c.3-.5.4-1.1.7-1.6.1-.5.4-1.1.4-1.6h-.1c-.3.4-.4 1.1-.7 1.5-.1.5-.5 1.1-.3 1.7-.2 0 0 0 0 0zM221.6 168.1c.3-.5.4-1.1.7-1.6.1-.5.4-1.1.5-1.7 0-.1-.1-.1-.1 0-.3.4-.4 1.1-.5 1.6-.4.4-.6 1.1-.6 1.7-.2 0-.2 0 0 0zM222.6 168.2c.3-.7.4-1.2.7-1.9.1-.7.4-1.3.5-2-.7 1.2-.9 2.8-1.2 3.9 0 .2 0 .2 0 0zM223.9 168.6c.5-1.2 1.1-2.8 1.1-4.3 0 0-.1-.1-.1 0-.3.7-.4 1.3-.5 2-.3.8-.5 1.6-.5 2.3z"/></g><g><path fill="#D3B490" stroke="#734D22" stroke-width=".906" d="M224.1 129.4l-15.6 7.7 17.5 1.2c-.1-.1-.9-6.1-1.9-8.9z"/><path fill="#734D22" d="M208.6 137.1l17.5 1.2s-.4-2.1-.8-4.4l-16.7 3.2z"/><path fill="#734D22" d="M211.1 137c.1-.4.1-.9 0-1.3h-.1c.1.4.1.9.1 1.3 0 .1 0 .1 0 0zM212.1 136.4c.1-.4.1-.8 0-1.3h-.1c-.1.5-.1.9.1 1.3 0 .2 0 .2 0 0zM213.1 136.4c.1-.5.1-1.1 0-1.6h-.1c-.2.6-.2 1.1.1 1.6-.2.2 0 .2 0 0zM213.9 136.1c0-.5 0-1.2-.1-1.7h-.1c-.1.5 0 1.2.1 1.7 0 .1.1.1.1 0zM214.8 135.9c0-.7 0-1.5-.3-2h-.1c0 .7.2 1.5.4 2-.2.1 0 .1 0 0zM215.8 135.8c0-.7-.1-1.5-.3-2.1-.1.7-.1 1.4.3 2.1zM216.6 135.6c0-.8 0-1.9-.4-2.5h-.1c.1.8.3 1.7.5 2.5 0 .2 0 .2 0 0zM217.8 135.5c.1-1.1-.4-2-.4-3.1h-.1c-.1.4 0 .9.1 1.3 0 .5 0 1.3.4 1.8-.2.1 0 .1 0 0zM218.6 135.4c.1-.9-.1-2.3-.4-3.1h-.1c0 .8.1 2.1.5 3.1zM219.9 134.6c.1-.9 0-2.1-.4-3.1h-.1c0 .5.1.9.1 1.5.1.6.3 1.1.4 1.6-.1 0 0 0 0 0zM221.1 134.6c0-.5-.1-1.2-.1-1.7-.1-.5-.1-1.1-.3-1.6h-.1c0 .5 0 1.1.1 1.5-.1.7-.1 1.3.4 1.8-.2 0 0 0 0 0zM222.1 134.1c0-.5-.1-1.1-.1-1.6-.1-.7-.1-1.2-.4-1.9 0-.1-.1-.1-.1 0 0 .5.1 1.1.1 1.6.2.8.2 1.4.5 1.9-.2.1 0 .1 0 0zM223.1 133.9c0-.7-.1-1.2-.3-1.9-.1-.7-.3-1.5-.5-2.1h-.1c-.1 1.3.5 2.8.7 4 .2.1.2.1.2 0zM224.4 133.6c0-1.3-.4-2.9-.9-4.3h-.1c0 1.5.5 2.9 1 4.3z"/></g><g><path fill="#D3B490" stroke="#734D22" stroke-width=".906" d="M212.6 105.2l-12 12.7 16.8-4.8c0-.1-2.8-5.6-4.8-7.9z"/><path fill="#734D22" d="M200.6 117.9l16.8-4.8s-1.1-1.9-2.3-3.9l-14.5 8.7z"/><path fill="#734D22" d="M203.1 116.8c0-.4-.1-.9-.4-1.2h-.1c0 .4.2.8.5 1.2zM203.8 116c-.1-.4-.1-.8-.4-1.2h-.1c.1.4.1.8.5 1.2zM204.6 115.6c-.1-.5-.3-1.1-.7-1.5h-.1c.1.6.4 1.1.8 1.5 0 .2 0 .2 0 0zM205.4 115.1c-.1-.5-.4-1.2-.8-1.6h-.1c.1.5.4 1.2.9 1.6-.3.1 0 .1 0 0zM205.9 114.6c-.1-.7-.5-1.3-.9-1.9h-.1c.2.7.7 1.3 1 1.9 0 .1.2 0 0 0zM206.9 114.2c-.3-.7-.5-1.3-1.1-1.9.1.7.6 1.3 1.1 1.9zM207.8 113.6c-.3-.8-.5-1.7-1.2-2.3 0 0-.1 0-.1.1.3.8.6 1.6 1.3 2.2-.2.2 0 .2 0 0zM208.6 113.2c-.1-.5-.4-.9-.5-1.3-.3-.5-.7-.9-.9-1.5h-.1c0 .4.3.8.5 1.2.3.6.5 1.1 1 1.6zM209.4 112.7c-.3-.9-.8-2.1-1.5-2.8h-.1c.1.5.4.9.7 1.5.4.4.6.9.9 1.3 0 .1 0 0 0 0zM210.4 111.6c-.1-.9-.8-2-1.5-2.8h-.1c.3 1.1 1.1 2 1.6 2.8 0 .2 0 .2 0 0zM211.4 111.2c-.1-.5-.5-1.1-.8-1.6s-.5-.9-.8-1.3h-.1c.1.5.4 1.1.7 1.5.2.6.5 1 1 1.4 0 .2 0 .2 0 0zM212.2 110.4c-.1-.5-.5-1.1-.8-1.6s-.5-1.1-.9-1.5c0-.1-.1 0-.1.1.1.5.5 1.1.8 1.5.4.6.7 1.1 1 1.5 0 .2.2.2 0 0zM213.4 109.8c-.3-.7-.5-1.2-.9-1.7s-.7-1.2-1.2-1.7c.1.7.5 1.2.9 1.7.2.6.6 1.1 1.2 1.7-.3.1 0 .1 0 0zM214.2 109.1c-.3-.7-.7-1.3-1.1-1.9-.4-.5-.8-1.2-1.3-1.7h-.1c.3.7.7 1.2 1.1 1.7.6.7 1 1.4 1.4 1.9 0 .1.2.1 0 0z"/></g></g><g><path fill="#D3B490" stroke="#734D22" stroke-width="1.143" d="M137.2 150.4L97.5 98l52.2 38.5.3 13.5z"/><path fill="#734D22" d="M97.5 98l52.2 38.5.3 13.5z"/><path fill="#734D22" d="M148.4 146.4c-1.9 1.7-3.7 3.6-5.5 5.5 1.9-1.8 3.8-3.5 5.5-5.5zM147.2 144.4c-2 1.9-4 3.9-5.9 5.9 2-1.9 4-3.8 5.9-5.9zM144.7 143.7c-1.9 1.9-3.9 3.7-5.7 5.7 1.9-1.8 3.8-3.7 5.7-5.7zM143.1 142c-2.1 2.1-4.4 4.3-6.5 6.5 0 0 0 .1 0 0 2.2-2 4.3-4.2 6.5-6.5.1.1 0 0 0 0zM140.9 140.9c-1.9 1.9-3.7 3.6-5.5 5.5 2.1-1.7 3.8-3.6 5.5-5.5.2 0 0 0 0 0zM139.5 139.2c-1.9 1.7-3.7 3.5-5.3 5.3 1.8-1.6 3.7-3.4 5.3-5.3zM137.7 137.7c-1.9 1.5-3.5 3.3-5.1 5.1 0 0 0 .1 0 0 1.8-1.5 3.7-3.2 5.1-5.1zM136 136.1c-.9.5-1.6 1.5-2.4 2.1-.8.8-1.6 1.7-2.4 2.5 0 0 0 .1.1.1.9-.8 1.7-1.6 2.5-2.4.9-.5 1.7-1.2 2.2-2.3.1.2 0 0 0 0zM134.5 134.4c-.8.5-1.6 1.5-2.3 2.1-.8.8-1.6 1.6-2.4 2.5 0 .1 0 .1.1.1.8-.8 1.7-1.6 2.5-2.4.8-.6 1.6-1.4 2.1-2.3.2 0 .2 0 0 0zM132.9 132.8c-1.6 1.5-3.1 2.9-4.4 4.5 0 .1 0 .1.1.1 1.6-1.3 3.1-2.9 4.5-4.5.1-.1 0-.2-.2-.1zM131.5 130.9c-.8.8-1.6 1.5-2.5 2.3-.7.7-1.6 1.3-2.1 2.1 0 .1 0 .1.1.1.8-.5 1.6-1.3 2.3-2 .8-.7 1.6-1.4 2.2-2.5.2.2.1 0 0 0zM129.6 129.6c-1.5 1.2-2.7 2.5-3.9 3.9 0 0 0 .1.1.1 1.3-1.2 2.8-2.4 4-3.9.1 0-.1-.1-.2-.1zM129.1 126.9c-.8.7-1.6 1.5-2.4 2.3s-1.6 1.6-2.3 2.4c0 .1 0 .1.1.1.8-.7 1.6-1.5 2.4-2.3s1.6-1.5 2.2-2.5zM126.7 126.1c-1.3 1.2-2.7 2.4-3.7 3.7 0 0 0 .1.1.1 1.3-1.1 2.7-2.4 3.7-3.7l-.1-.1zM123.2 123.1c-1.2.9-2.1 2-3.1 3.2 0 .1 0 .1.1.1 1.1-.9 2.3-2 3-3.3.3.1.1 0 0 0zM124.7 124.8c-1.2.9-2.3 2.1-3.2 3.2 0 .1 0 .1.1.1 1.2-.9 2.3-2 3.2-3.2.1-.1 0-.2-.1-.1zM121.5 121.6c-1.1.8-2 1.9-2.8 2.8 0 .1 0 .1.1.1 1.1-.8 2-1.7 2.7-2.9.2 0 .1 0 0 0zM119.9 120c-.9.7-1.7 1.6-2.4 2.5 0 .1 0 .1.1.1.9-.7 1.7-1.6 2.3-2.6.2.1.1 0 0 0zM118.7 118.1c-.5.3-.9.8-1.3 1.2-.4.5-.9.9-1.3 1.5 0 .1 0 .1.1.1.5-.4.9-.8 1.5-1.3.3-.5.7-.9 1-1.5.1 0 0-.1 0 0zM117.1 116.4c-.9.5-1.9 1.6-2.5 2.5 0 .1 0 .1.1.1.9-.6 2-1.5 2.4-2.6.1 0 .1-.1 0 0zM115.5 114.7c-.9.5-1.9 1.6-2.5 2.5 0 .1 0 .1.1.1.9-.7 2-1.5 2.4-2.6.2.1.1 0 0 0zM114.3 112.8c-.9.7-1.9 1.6-2.5 2.5 0 .1 0 .1.1.1.8-.7 1.8-1.5 2.4-2.6.1 0 0-.1 0 0zM112.4 111.5c-.8.4-1.5 1.3-2 2 0 0 0 .1.1.1.7-.5 1.5-1.3 1.9-2.1.1 0 0-.2 0 0zM110.4 110.1c-.5.4-.9.9-1.3 1.5 0 .1 0 .1.1.1.5-.4 1.1-.8 1.5-1.5-.2.1-.3-.1-.3-.1zM108.5 108.7c-.5.3-.8.7-1.2 1.2 0 .1 0 .1.1.1.5-.3.9-.7 1.1-1.3.3.1.2 0 0 0zM107.2 106.8c-.5.3-.8.8-1.2 1.2 0 0 0 .1.1.1.4-.3.9-.7 1.1-1.3.3 0 .1 0 0 0zM105.6 105.2c-.4.3-.7.7-1.1 1.1 0 0 0 .1.1.1.4-.3.8-.7 1-1.2.3.1.1 0 0 0z"/><g><path fill="#D3B490" stroke="#734D22" stroke-width="1.143" d="M150.4 162.8L98 202.5l38.5-52.2 13.5-.3z"/><path fill="#734D22" d="M98 202.5l38.5-52.2 13.5-.3z"/><path fill="#734D22" d="M146.4 151.6c1.7 1.9 3.6 3.7 5.5 5.5-1.8-1.9-3.6-3.8-5.5-5.5 0-.1-.1 0 0 0zM144.4 152.8c1.9 2 3.9 4 5.9 5.9-1.9-2-3.9-4-5.9-5.9 0 0-.1 0 0 0zM143.7 155.3c1.9 1.9 3.7 3.9 5.7 5.7-1.8-1.9-3.8-3.8-5.7-5.7 0 0-.1 0 0 0zM142 156.9c2.1 2.1 4.3 4.4 6.5 6.5 0 0 .1 0 0 0-2-2.2-4.2-4.3-6.5-6.5 0-.1 0 0 0 0zM140.9 159.1c1.9 1.9 3.6 3.7 5.5 5.5-1.7-2.1-3.6-3.8-5.5-5.5 0-.2-.1 0 0 0zM139.2 160.5c1.7 1.9 3.5 3.7 5.3 5.3-1.7-1.8-3.4-3.7-5.3-5.3 0-.1 0 0 0 0zM137.7 162.3c1.5 1.9 3.3 3.5 5.1 5.1 0 0 .1 0 0 0-1.6-1.8-3.2-3.7-5.1-5.1zM136.1 164c.5.9 1.5 1.6 2.1 2.4.8.8 1.7 1.6 2.5 2.4 0 0 .1 0 .1-.1-.8-.9-1.6-1.7-2.4-2.5-.7-.9-1.3-1.8-2.3-2.2 0-.1 0-.1 0 0zM134.3 165.5c.5.8 1.5 1.6 2.1 2.3.8.8 1.6 1.6 2.5 2.4.1 0 .1 0 .1-.1-.8-.8-1.6-1.7-2.4-2.5-.6-.8-1.3-1.7-2.3-2.1.1-.2 0-.2 0 0zM132.7 167.1c1.5 1.6 2.9 3.1 4.5 4.4.1 0 .1 0 .1-.1-1.3-1.6-2.9-3.1-4.5-4.5-.1-.1-.3 0-.1.2zM130.9 168.5c.8.8 1.5 1.6 2.3 2.5.7.7 1.3 1.6 2.1 2.1.1 0 .1 0 .1-.1-.5-.8-1.3-1.6-2-2.3-.7-.8-1.5-1.6-2.5-2.2 0-.2-.1-.1 0 0zM129.6 170.4c1.2 1.5 2.5 2.7 3.9 3.9 0 0 .1 0 .1-.1-1.2-1.3-2.4-2.8-3.9-4-.1-.1-.2.1-.1.2zM126.9 170.9c.7.8 1.5 1.6 2.3 2.4.8.8 1.6 1.6 2.4 2.3.1 0 .1 0 .1-.1-.7-.8-1.5-1.6-2.3-2.4s-1.5-1.6-2.4-2.3c-.1 0-.2.1-.1.1zM126.1 173.3c1.2 1.3 2.4 2.7 3.7 3.7 0 0 .1 0 .1-.1-1.1-1.3-2.4-2.7-3.7-3.7-.1 0-.2 0-.1.1zM123.1 176.8c.9 1.2 2 2.1 3.2 3.1.1 0 .1 0 .1-.1-.9-1.3-2-2.3-3.3-3 0-.3-.2-.1 0 0zM124.7 175.2c.9 1.2 2.1 2.3 3.2 3.2.1 0 .1 0 .1-.1-.9-1.2-2-2.3-3.2-3.2 0-.2-.1.1-.1.1zM121.5 178.5c.8 1.1 1.9 2 2.8 2.8.1 0 .1 0 .1-.1-.8-1.1-1.7-2-2.8-2.8 0-.1-.1 0-.1.1zM120 180.1c.7.9 1.6 1.7 2.5 2.4.1 0 .1 0 .1-.1-.7-.9-1.6-1.7-2.5-2.4-.1-.1-.2 0-.1.1zM118 181.3c.3.5.8.9 1.2 1.3.5.4.9.9 1.5 1.3.1 0 .1 0 .1-.1-.4-.5-.8-.9-1.3-1.5-.4-.3-.8-.7-1.5-1 0-.1 0 0 0 0zM116.3 182.9c.5.9 1.6 1.9 2.5 2.5.1 0 .1 0 .1-.1-.6-.9-1.6-2-2.6-2.4 0-.1 0-.1 0 0zM114.7 184.4c.5.9 1.6 1.9 2.5 2.5.1 0 .1 0 .1-.1-.7-.9-1.5-2-2.5-2.5-.1 0-.3.1-.1.1zM112.7 185.7c.7.9 1.6 1.9 2.5 2.5.1 0 .1 0 .1-.1-.8-.9-1.6-1.8-2.6-2.4 0-.1 0-.1 0 0zM111.3 187.6c.4.8 1.3 1.5 2 2 0 0 .1 0 .1-.1-.3-.7-1.1-1.5-2.1-1.9.2-.1 0 0 0 0zM110.1 189.6c.4.5.9.9 1.5 1.3.1 0 .1 0 .1-.1-.4-.5-.8-1.1-1.5-1.5-.1.2-.2.3-.1.3zM108.7 191.3c.3.5.7.8 1.2 1.2.1 0 .1 0 .1-.1-.3-.5-.7-.9-1.2-1.2-.1 0-.3.1-.1.1zM106.8 192.8c.3.5.8.8 1.2 1.2 0 0 .1 0 .1-.1-.3-.4-.7-.9-1.2-1.2-.1-.2-.2 0-.1.1zM105.2 194.4c.3.4.7.7 1.1 1.1 0 0 .1 0 .1-.1-.3-.4-.7-.8-1.1-1.1-.1-.2-.2 0-.1.1z"/></g><g><path fill="#D3B490" stroke="#734D22" stroke-width="1.143" d="M162.8 149.6l39.7 52.4-52.2-38.5-.3-13.5z"/><path fill="#734D22" d="M202.5 202l-52.2-38.5-.3-13.5z"/><path fill="#734D22" d="M151.5 153.6c1.9-1.7 3.7-3.6 5.5-5.5-1.9 1.8-3.8 3.6-5.5 5.5zM152.7 155.6c2-1.9 4-3.9 5.9-5.9-2.1 1.9-4.1 3.9-5.9 5.9zM155.3 156.3c1.9-1.9 3.9-3.7 5.7-5.7-1.9 1.8-3.9 3.7-5.7 5.7-.1 0-.1.1 0 0zM156.8 158c2.1-2.1 4.4-4.3 6.5-6.5 0 0 0-.1 0 0-2.2 2-4.4 4.2-6.5 6.5zM158.9 159.1c1.9-1.9 3.7-3.6 5.5-5.5-1.9 1.7-3.7 3.6-5.5 5.5zM160.4 160.8c1.9-1.7 3.7-3.5 5.3-5.3-1.8 1.7-3.6 3.4-5.3 5.3zM162.1 162.3c1.9-1.5 3.5-3.3 5.1-5.1 0 0 0-.1 0 0-1.7 1.6-3.5 3.2-5.1 5.1zM163.9 163.9c.9-.5 1.6-1.5 2.4-2.1.8-.8 1.6-1.7 2.4-2.5 0 0 0-.1-.1-.1-.9.8-1.7 1.6-2.5 2.4-.9.5-1.7 1.3-2.2 2.3-.2 0 0 0 0 0zM165.3 165.6c.8-.5 1.6-1.5 2.3-2.1.8-.8 1.6-1.6 2.4-2.5 0-.1 0-.1-.1-.1-.8.8-1.7 1.6-2.5 2.4-.7.7-1.5 1.4-2.1 2.3-.1 0 0 .1 0 0zM166.9 167.3c1.6-1.5 3.1-2.9 4.4-4.5 0-.1 0-.1-.1-.1-1.6 1.3-3.1 2.9-4.5 4.5.1 0 .2.3.2.1zM168.4 169.1c.8-.8 1.6-1.5 2.5-2.3.7-.7 1.6-1.3 2.1-2.1 0-.1 0-.1-.1-.1-.8.5-1.6 1.3-2.3 2-.7.7-1.5 1.5-2.2 2.5-.1 0-.1.1 0 0zM170.4 170.4c1.5-1.2 2.7-2.5 3.9-3.9 0 0 0-.1-.1-.1-1.3 1.2-2.8 2.4-4 3.9-.1.1.1.2.2.1zM170.9 173.1c.8-.7 1.6-1.5 2.4-2.3.8-.8 1.6-1.6 2.3-2.4 0-.1 0-.1-.1-.1-.8.7-1.6 1.5-2.4 2.3s-1.6 1.5-2.3 2.4c-.1.1 0 .2.1.1zM173.3 173.9c1.3-1.2 2.7-2.4 3.7-3.7 0 0 0-.1-.1-.1-1.3 1.1-2.7 2.4-3.7 3.7-.1.1 0 .2.1.1zM176.7 176.9c1.2-.9 2.1-2 3.1-3.2 0-.1 0-.1-.1-.1-1.2.9-2.2 2-3 3.3-.2 0 0 0 0 0zM175.2 175.2c1.2-.9 2.3-2.1 3.2-3.2 0-.1 0-.1-.1-.1-1.2.9-2.3 2-3.2 3.2-.2.1 0 .2.1.1zM178.4 178.4c1.1-.8 2-1.9 2.8-2.8 0-.1 0-.1-.1-.1-1.1.8-2 1.7-2.8 2.8 0 .1 0 .2.1.1zM180.1 180c.9-.7 1.7-1.6 2.4-2.5 0-.1 0-.1-.1-.1-.9.7-1.7 1.6-2.4 2.5-.1.1 0 .2.1.1zM181.3 182c.5-.3.9-.8 1.3-1.2.4-.5.9-.9 1.3-1.5 0-.1 0-.1-.1-.1-.5.4-.9.8-1.5 1.3-.3.4-.8.8-1 1.5-.1 0-.1 0 0 0zM182.8 183.7c.9-.5 1.9-1.6 2.5-2.5 0-.1 0-.1-.1-.1-.9.6-2 1.6-2.4 2.6-.1-.1-.1 0 0 0zM184.4 185.3c.9-.5 1.9-1.6 2.5-2.5 0-.1 0-.1-.1-.1-.9.7-2 1.5-2.5 2.5-.2.1 0 .3.1.1zM185.6 187.3c.9-.7 1.9-1.6 2.5-2.5 0-.1 0-.1-.1-.1-.8.8-1.9 1.6-2.4 2.6-.1-.1 0 0 0 0zM187.6 188.7c.8-.4 1.5-1.3 2-2 0 0 0-.1-.1-.1-.8.3-1.6 1.1-1.9 2.1-.3-.2-.1 0 0 0zM189.6 189.9c.5-.4.9-.9 1.3-1.5 0-.1 0-.1-.1-.1-.5.4-1.1.8-1.5 1.5 0 .1.2.2.3.1zM191.3 191.3c.5-.3.8-.7 1.2-1.2 0-.1 0-.1-.1-.1-.5.3-.9.7-1.2 1.2-.1.1 0 .3.1.1zM192.7 193.2c.5-.3.8-.8 1.2-1.2 0 0 0-.1-.1-.1-.4.3-.9.7-1.2 1.2-.2.1-.1.2.1.1zM194.3 194.8c.4-.3.7-.7 1.1-1.1 0 0 0-.1-.1-.1-.4.3-.8.7-1.1 1.1-.1.1.1.2.1.1z"/></g><g><path fill="#D3B490" stroke="#734D22" stroke-width="1.143" d="M149.6 137.2L202 97.5l-38.5 52.2-13.5.3z"/><path fill="#734D22" d="M202 97.5l-38.5 52.2-13.5.3z"/><path fill="#734D22" d="M153.6 148.4c-1.7-1.9-3.6-3.7-5.5-5.5 1.8 2 3.5 3.9 5.5 5.5-.1.1 0 .1 0 0zM155.6 147.2c-1.9-2-3.9-4-5.9-5.9 1.9 2.2 3.8 4.2 5.9 5.9 0 .1 0 .1 0 0zM156.3 144.7c-1.9-1.9-3.7-3.9-5.7-5.7 1.8 1.9 3.7 3.9 5.7 5.7 0 .1 0 0 0 0zM157.9 143.2c-2.1-2.1-4.3-4.4-6.5-6.5 0 0-.1 0 0 0 2.1 2.2 4.3 4.4 6.5 6.5 0 0 .1 0 0 0zM159.1 141.1c-1.9-1.9-3.6-3.7-5.5-5.5 1.7 1.9 3.6 3.6 5.5 5.5zM160.8 139.6c-1.7-1.9-3.5-3.7-5.3-5.3 1.6 1.7 3.3 3.6 5.3 5.3zM162.1 137.7c-1.5-1.9-3.3-3.5-5.1-5.1 0 0-.1 0 0 0 1.7 1.8 3.4 3.7 5.1 5.1 0 .2.2 0 0 0zM163.7 136.1c-.5-.9-1.5-1.6-2.1-2.4-.8-.8-1.7-1.6-2.5-2.4 0 0-.1 0-.1.1.8.9 1.6 1.7 2.4 2.5.7.8 1.4 1.7 2.3 2.2 0 0 .2 0 0 0zM165.6 134.7c-.5-.8-1.5-1.6-2.1-2.3-.8-.8-1.6-1.6-2.5-2.4-.1 0-.1 0-.1.1.8.8 1.6 1.7 2.4 2.5.6.7 1.4 1.5 2.3 2.1 0 .1 0 0 0 0zM167.2 133.1c-1.5-1.6-2.9-3.1-4.5-4.4-.1 0-.1 0-.1.1 1.3 1.6 2.9 3.1 4.5 4.5.1-.1.2-.2.1-.2zM169.1 131.6c-.8-.8-1.5-1.6-2.3-2.5-.7-.7-1.3-1.6-2.1-2.1-.1 0-.1 0-.1.1.5.8 1.3 1.6 2 2.3.6.7 1.4 1.5 2.5 2.2-.2.1 0 0 0 0zM170.4 129.6c-1.2-1.5-2.5-2.7-3.9-3.9 0 0-.1 0-.1.1 1.2 1.3 2.4 2.8 3.9 4 0 .1.1-.1.1-.2zM172.9 129.1c-.7-.8-1.5-1.6-2.3-2.4s-1.6-1.6-2.4-2.3c-.1 0-.1 0-.1.1.7.8 1.5 1.6 2.3 2.4s1.5 1.6 2.4 2.3c.1.1.3 0 .1-.1zM173.9 126.7c-1.2-1.3-2.4-2.7-3.7-3.7 0 0-.1 0-.1.1 1.1 1.3 2.4 2.7 3.7 3.7-.1.1.1 0 .1-.1zM176.8 123.3c-.9-1.2-2-2.1-3.2-3.1-.1 0-.1 0-.1.1 1 1.2 2.1 2.2 3.3 3 0 .2.1 0 0 0zM175.2 124.8c-.9-1.2-2.1-2.3-3.2-3.2-.1 0-.1 0-.1.1.9 1.2 2 2.3 3.2 3.2 0 .2.2 0 .1-.1zM178.4 121.6c-.8-1.1-1.9-2-2.8-2.8-.1 0-.1 0-.1.1.8 1.1 1.7 2 2.8 2.8l.1-.1zM180 119.9c-.7-.9-1.6-1.7-2.5-2.4-.1 0-.1 0-.1.1.7.9 1.6 1.7 2.5 2.4 0 .1.1 0 .1-.1zM181.9 118.7c-.3-.5-.8-.9-1.2-1.3-.5-.4-.9-.9-1.5-1.3-.1 0-.1 0-.1.1.4.5.8.9 1.3 1.5.5.3.9.8 1.5 1 0 .1.1.1 0 0zM183.6 117.2c-.5-.9-1.6-1.9-2.5-2.5-.1 0-.1 0-.1.1.6.9 1.5 2 2.6 2.4 0 .1 0 0 0 0zM185.3 115.6c-.5-.9-1.6-1.9-2.5-2.5-.1 0-.1 0-.1.1.7.9 1.5 2 2.5 2.5 0 0 .1 0 .1-.1zM187.2 114.3c-.7-.9-1.6-1.9-2.5-2.5-.1 0-.1 0-.1.1.7.9 1.5 2 2.6 2.4 0 .2.1.1 0 0zM188.5 112.4c-.4-.8-1.3-1.5-2-2 0 0-.1 0-.1.1.5.7 1.2 1.6 2.1 1.9 0 .1.2.1 0 0zM189.9 110.4c-.4-.5-.9-.9-1.5-1.3-.1 0-.1 0-.1.1.4.5.8 1.1 1.5 1.5-.1 0 .1-.2.1-.3zM191.3 108.7c-.3-.5-.7-.8-1.2-1.2-.1 0-.1 0-.1.1.3.5.7.9 1.2 1.2 0 .1.1 0 .1-.1zM193.2 107.3c-.3-.5-.8-.8-1.2-1.2 0 0-.1 0-.1.1.3.4.7.9 1.2 1.2 0 .1.1.1.1-.1zM194.7 105.6c-.3-.4-.7-.7-1.1-1.1 0 0-.1 0-.1.1.3.4.7.7 1.1 1.1.1.2.2 0 .1-.1z"/></g></g><g><path fill="#D3B490" stroke="#734D22" stroke-width="1.495" d="M138.5 162.2l-85.2-11.6 84-12.8 12.7 12.1z"/><path fill="#734D22" d="M53.3 150.6l84-12.8 12.7 12.1z"/><path fill="#734D22" d="M145.1 148.1c-.4 3.3-.3 6.8 0 10.1 0 .1.3.1.3 0 .3-3.3.5-6.8 0-10.1.1-.3-.3-.3-.3 0zM142.1 147.3c-.5 3.5-.3 7.3 0 10.9 0 .1.1.1.3 0 .3-3.5.5-7.5 0-10.9 0-.2-.3-.2-.3 0zM139.1 149.1c-.3 3.5-.3 7.1 0 10.5 0 .1.3.1.3 0 .3-3.5.3-7.1 0-10.5.1-.2-.2-.2-.3 0zM136.1 149.1c-.1 4-.5 8.1 0 12.1 0 .1.3.1.3 0 .5-4 .1-8.1 0-12.1.1-.3-.3-.3-.3 0zM133.2 149.9c0 3.3-.4 6.8 0 10.1 0 .1.3.1.3 0 .4-3.3.1-6.8 0-10.1 0-.1-.3-.1-.3 0zM130.3 149.8c-.7 3.1-.5 6.8-.1 10 0 .1.3.1.3 0 .5-3.1.7-6.9 0-10-.1-.2-.2-.2-.2 0zM127.3 149.9c-.5 1.3-.3 2.9-.4 4.4 0 1.7 0 3.3.3 5.1 0 .3.3.3.3 0 .3-1.7.3-3.3.3-5.1-.1-1.4.1-3-.5-4.4.2 0 0 0 0 0zM124.3 150.1c-.8 2.7-.3 6.1 0 8.8 0 .1.3.1.3 0 .3-2.7.8-6.1 0-8.8-.1-.2-.3-.2-.3 0zM121.2 149.8c-.4 1.3-.3 2.8-.3 4.1 0 1.6 0 3.1.1 4.7 0 .3.3.3.4 0 .1-1.6.1-3.1.1-4.7 0-1.3.1-2.8-.3-4.1.3-.2.1-.2 0 0zM118.3 149.8c-.1 2.8-.3 5.6.1 8.3 0 .1.3.1.3 0 .4-2.8.1-5.6 0-8.3 0-.4-.4-.4-.4 0zM115.2 149.4c-.1 1.5-.3 2.9-.3 4.4 0 1.3-.3 2.7.1 4 0 .1.3.1.4 0 .4-1.2.3-2.7.3-4 0-1.5 0-2.9-.1-4.4 0-.3-.3-.3-.4 0zM112.3 149.9c-.3 2.4-.3 4.8 0 7.2 0 .1.3.1.3 0 .3-2.4.5-4.8.3-7.2-.2-.1-.6-.1-.6 0zM109.2 147.9c-.5 2.7-.4 6 0 8.8 0 .1.3.1.3 0 .4-2.7.5-6 0-8.8.1-.1-.2-.1-.3 0zM106.3 149.4c-.3 2.3-.4 4.7 0 6.9 0 .1.3.1.3 0 .4-2.3.4-4.7.1-6.9 0-.3-.4-.3-.4 0zM100.3 149.8c-.4 1.9-.3 4 .1 5.9 0 .1.3.1.3 0 .4-1.9.4-4 0-5.9 0-.2-.3-.2-.4 0zM103.2 149.8c-.4 2-.1 4 .1 6 0 .1.3.3.3 0 .3-2 .4-4 .1-6h-.5zM97.3 149.9c-.4 1.6-.1 3.6.1 5.3 0 .1.3.1.3 0 .3-1.6.5-3.6 0-5.3 0-.1-.4-.1-.4 0zM94.3 149.9c-.3 1.5-.3 3.2.1 4.7 0 .1.3.1.4 0 .4-1.5.3-3.2 0-4.7 0-.1-.4-.1-.5 0zM91.5 149.3c-.4.8-.3 1.6-.3 2.4 0 .9.1 1.7.3 2.7 0 .1.3.1.3 0 .1-.9.3-1.7.3-2.7 0-.8 0-1.7-.3-2.4-.2-.2-.3-.2-.3 0zM88.4 149.1c-.3.7-.3 1.5-.3 2.3s0 1.7.3 2.5c0 .1.3.1.4 0 .1-.8.1-1.6.1-2.5 0-.8 0-1.6-.3-2.3h-.2zM85.5 149.1c-.7 1.3-.3 3.3 0 4.8 0 .1.3.1.4 0 .3-1.5.7-3.3 0-4.8-.2-.2-.4-.2-.4 0zM82.4 148.6c-.5 1.3-.3 3.3 0 4.7 0 .1.3.1.3 0 .3-1.5.5-3.3 0-4.7.1-.3-.2-.3-.3 0zM79.5 149.1c-.3.5-.3 1.2-.3 1.9s0 1.3.3 2c0 .1.3.1.3 0 .3-.7.3-1.3.3-2s0-1.3-.3-1.9c-.1-.2-.2-.2-.3 0zM76.4 149.8c-.3.8 0 1.9.1 2.7 0 .1.3.1.3 0 .1-.8.4-1.9.1-2.7-.1-.4-.4-.4-.5 0zM73.5 149.9c-.3.7-.3 1.6.1 2.3 0 .1.3.1.3 0 .3-.7.4-1.6 0-2.3 0-.1-.3-.1-.4 0zM70.5 149.4c-.4.7-.1 1.6 0 2.3 0 .1.3.1.3 0 .3-.7.5-1.7 0-2.3 0-.1-.1-.1-.3 0zM67.5 149.6c-.1.7-.1 1.3 0 2 0 .1.3.1.3 0 .1-.7.1-1.3 0-2 .1-.3-.2-.3-.3 0z"/><g><path fill="#D3B490" stroke="#734D22" stroke-width="1.495" d="M162.3 161.4l-11.8 85.2-12.8-84 12.3-12.7z"/><path fill="#734D22" d="M150.5 246.6l-12.8-84 12.3-12.7z"/><path fill="#734D22" d="M148.1 154.9c3.3.4 6.8.3 10.1 0 .1 0 .1-.3 0-.3-3.3-.3-6.8-.5-10.1 0-.2 0-.2.3 0 .3zM147.3 157.8c3.5.5 7.3.3 10.9 0 .1 0 .1-.1 0-.3-3.5-.3-7.5-.5-10.9 0-.1.1-.1.3 0 .3zM149.1 160.9c3.5.3 7.1.3 10.5 0 .1 0 .1-.3 0-.3-3.5-.3-7.1-.3-10.5 0-.2 0-.2.2 0 .3zM149.1 163.8c4 .1 8.1.5 12.1 0 .1 0 .1-.3 0-.3-4-.5-8.1-.1-12.1 0-.3-.1-.3.3 0 .3zM150 166.8c3.3 0 6.8.4 10.1 0 .1 0 .1-.3 0-.3-3.3-.4-6.8-.1-10.1 0-.3.1-.3.3 0 .3zM149.7 169.8c3.1.7 6.8.5 10 .1.1 0 .1-.3 0-.3-3.1-.5-6.9-.7-10 0-.1 0-.1.2 0 .2zM150 172.6c1.3.5 2.9.3 4.4.4 1.7 0 3.3 0 5.1-.3.3 0 .3-.3 0-.3-1.7-.3-3.3-.3-5.1-.3-1.5.1-3.1 0-4.4.5zM150.1 175.8c2.7.8 6.1.3 8.8 0 .1 0 .1-.3 0-.3-2.7-.3-6.1-.8-8.8 0-.1-.1-.1.3 0 .3zM149.7 178.8c1.3.4 2.8.3 4.1.3 1.6 0 3.1 0 4.7-.1.3 0 .3-.3 0-.4-1.6-.1-3.1-.1-4.7-.1-1.3-.1-2.8-.2-4.1.3-.1-.2-.1-.2 0 0zM149.7 181.8c2.8.1 5.6.3 8.3-.1.1 0 .1-.3 0-.3-2.8-.4-5.6-.1-8.3 0-.2-.1-.2.4 0 .4zM149.5 184.8c1.5.1 2.9.3 4.4.3 1.3 0 2.7.3 4-.1.1 0 .1-.3 0-.4-1.2-.4-2.7-.3-4-.3-1.5 0-2.9 0-4.4.1-.3-.1-.3.2 0 .4zM150 187.8c2.4.3 4.8.3 7.2 0 .1 0 .1-.3 0-.3-2.4-.3-4.8-.5-7.2-.3-.3.1-.3.6 0 .6zM148 190.8c2.7.5 6 .4 8.8 0 .1 0 .1-.3 0-.3-2.7-.4-6-.5-8.8 0-.1-.2-.1.1 0 .3zM149.5 193.8c2.3.3 4.7.4 6.9 0 .1 0 .1-.3 0-.3-2.3-.4-4.7-.4-6.9-.1-.3-.1-.3.4 0 .4zM149.9 199.8c1.9.4 4 .3 5.9-.1.1 0 .1-.3 0-.3-1.9-.4-4-.4-5.9 0-.3-.1-.3.2 0 .4zM149.9 196.8c2 .4 4 .1 6-.1.1 0 .3-.3 0-.3-2-.3-4-.4-6-.1-.2-.1-.2.3 0 .5zM150 202.6c1.6.4 3.6.1 5.3-.1.1 0 .1-.3 0-.3-1.6-.3-3.6-.5-5.3 0-.3 0-.3.4 0 .4zM150 205.8c1.5.3 3.2.3 4.7-.1.1 0 .1-.3 0-.4-1.5-.4-3.2-.3-4.7 0-.1-.2-.1.3 0 .5zM149.3 208.6c.8.4 1.6.3 2.4.3.9 0 1.7-.1 2.7-.3.1 0 .1-.3 0-.3-.9-.1-1.7-.3-2.7-.3-.8 0-1.7 0-2.4.3-.1 0-.1.3 0 .3zM149.2 211.6c.7.3 1.5.3 2.3.3s1.7 0 2.5-.3c.1 0 .1-.3 0-.4-.8-.1-1.6-.1-2.5-.1-.8 0-1.6 0-2.3.3-.1-.1-.1 0 0 .2zM149.1 214.6c1.3.7 3.3.3 4.8 0 .1 0 .1-.3 0-.4-1.5-.3-3.3-.7-4.8 0-.2 0-.2.4 0 .4zM148.5 217.6c1.3.5 3.3.3 4.7 0 .1 0 .1-.3 0-.3-1.5-.3-3.3-.5-4.7 0-.1-.2-.1.1 0 .3zM149.1 220.6c.5.3 1.2.3 1.9.3s1.3 0 2-.3c.1 0 .1-.3 0-.3-.7-.3-1.3-.3-2-.3s-1.3 0-1.9.3c-.2-.1-.2 0 0 .3zM149.7 223.6c.8.3 1.9 0 2.7-.1.1 0 .1-.3 0-.3-.8-.1-1.9-.4-2.7-.1-.2 0-.2.3 0 .5zM150 226.6c.7.3 1.6.3 2.3-.1.1 0 .1-.3 0-.3-.7-.3-1.6-.4-2.3 0-.3-.1-.3.1 0 .4zM149.5 229.4c.7.4 1.6.1 2.3 0 .1 0 .1-.3 0-.3-.7-.3-1.7-.5-2.3 0-.2 0-.2.2 0 .3zM149.6 232.6c.7.1 1.3.1 2 0 .1 0 .1-.3 0-.3-.7-.1-1.3-.1-2 0-.3-.2-.3 0 0 .3z"/></g><g><path fill="#D3B490" stroke="#734D22" stroke-width="1.495" d="M161.5 137.8l85.2 11.6-84 12.8-12.7-12.3z"/><path fill="#734D22" d="M246.7 149.4l-84 12.8-12.7-12.3z"/><path fill="#734D22" d="M154.9 151.8c.4-3.3.3-6.8 0-10.1 0-.1-.3-.1-.3 0-.3 3.3-.5 6.8 0 10.1-.1.3.3.3.3 0zM157.9 152.6c.5-3.5.3-7.3 0-10.9 0-.1-.1-.1-.3 0-.3 3.5-.5 7.5 0 10.9 0 .2.3.2.3 0zM160.9 150.9c.3-3.5.3-7.1 0-10.5 0-.1-.3-.1-.3 0-.3 3.5-.3 7.1 0 10.5-.1.2.2.2.3 0zM163.9 150.9c.1-4 .5-8.1 0-12.1 0-.1-.3-.1-.3 0-.5 4-.1 8.1 0 12.1-.1.2.3.2.3 0zM166.8 149.9c0-3.3.4-6.8 0-10.1 0-.1-.3-.1-.3 0-.4 3.3-.1 6.8 0 10.1 0 .3.3.3.3 0zM169.7 150.2c.7-3.1.5-6.8.1-10 0-.1-.3-.1-.3 0-.5 3.1-.7 6.9 0 10 .1.1.2.1.2 0zM172.7 149.9c.5-1.3.3-2.9.4-4.4 0-1.7 0-3.3-.3-5.1 0-.3-.3-.3-.3 0-.3 1.7-.3 3.3-.3 5.1.1 1.6-.1 3.1.5 4.4-.2 0 0 0 0 0zM175.7 149.8c.8-2.7.3-6.1 0-8.8 0-.1-.3-.1-.3 0-.3 2.7-.8 6.1 0 8.8.1.1.3.1.3 0zM178.8 150.2c.4-1.3.3-2.8.3-4.1 0-1.6 0-3.1-.1-4.7 0-.3-.3-.3-.4 0-.1 1.6-.1 3.1-.1 4.7 0 1.3-.1 2.8.3 4.1-.3.1-.1.1 0 0zM181.7 150.2c.1-2.8.3-5.6-.1-8.3 0-.1-.3-.1-.3 0-.4 2.8-.1 5.6 0 8.3 0 .4.4.4.4 0zM184.8 150.6c.1-1.5.3-2.9.3-4.4 0-1.3.3-2.7-.1-4 0-.1-.3-.1-.4 0-.4 1.2-.3 2.7-.3 4 0 1.5 0 2.9.1 4.4 0 .2.3.2.4 0zM187.7 149.9c.3-2.4.3-4.8 0-7.2 0-.1-.3-.1-.3 0-.3 2.4-.5 4.8-.3 7.2.2.3.6.3.6 0zM190.8 151.9c.5-2.7.4-6 0-8.8 0-.1-.3-.1-.3 0-.4 2.7-.5 6 0 8.8-.1.2.2.2.3 0zM193.7 150.6c.3-2.3.4-4.7 0-6.9 0-.1-.3-.1-.3 0-.4 2.3-.4 4.7-.1 6.9 0 .2.4.2.4 0zM199.7 150.1c.4-1.9.3-4-.1-5.9 0-.1-.3-.1-.3 0-.4 1.9-.4 4 0 5.9 0 .2.3.2.4 0zM196.8 150.1c.4-2 .1-4-.1-6 0-.1-.3-.3-.3 0-.3 2-.4 4-.1 6 0 .1.4.1.5 0zM202.7 149.9c.4-1.6.1-3.6-.1-5.3 0-.1-.3-.1-.3 0-.3 1.6-.5 3.6 0 5.3 0 .3.4.3.4 0zM205.7 149.9c.3-1.5.3-3.2-.1-4.7 0-.1-.3-.1-.4 0-.4 1.5-.3 3.2 0 4.7 0 .2.4.2.5 0zM208.5 150.6c.4-.8.3-1.6.3-2.4 0-.9-.1-1.7-.3-2.7 0-.1-.3-.1-.3 0-.1.9-.3 1.7-.3 2.7 0 .8 0 1.7.3 2.4.2.2.3.2.3 0zM211.6 150.8c.3-.7.3-1.5.3-2.3s0-1.7-.3-2.5c0-.1-.3-.1-.4 0-.1.8-.1 1.6-.1 2.5 0 .8 0 1.6.3 2.3-.1.1.1.1.2 0zM214.5 150.9c.7-1.3.3-3.3 0-4.8 0-.1-.3-.1-.4 0-.3 1.5-.7 3.3 0 4.8.2.2.4.2.4 0zM217.6 151.4c.5-1.3.3-3.3 0-4.7 0-.1-.3-.1-.3 0-.3 1.5-.5 3.3 0 4.7-.1.2.2.2.3 0zM220.5 150.9c.3-.5.3-1.2.3-1.9s0-1.3-.3-2c0-.1-.3-.1-.3 0-.3.7-.3 1.3-.3 2s0 1.3.3 1.9c.1.2.2.2.3 0zM223.6 150.2c.3-.8 0-1.9-.1-2.7 0-.1-.3-.1-.3 0-.1.8-.4 1.9-.1 2.7.1.4.4.4.5 0zM226.5 149.9c.3-.7.3-1.6-.1-2.3 0-.1-.3-.1-.3 0-.3.7-.4 1.6 0 2.3 0 .3.3.3.4 0zM229.5 150.6c.4-.7.1-1.6 0-2.3 0-.1-.3-.1-.3 0-.3.7-.5 1.7 0 2.3h.3zM232.5 150.3c.1-.7.1-1.3 0-2 0-.1-.3-.1-.3 0-.1.7-.1 1.3 0 2-.1.3.2.3.3 0z"/></g><g><path fill="#D3B490" stroke="#734D22" stroke-width="1.495" d="M137.7 138.6l11.8-85.2 12.8 83.9-12.3 12.6z"/><path fill="#734D22" d="M149.5 53.4l12.8 83.9-12.3 12.6z"/><path fill="#734D22" d="M151.9 145.1c-3.3-.4-6.8-.3-10.1 0-.1 0-.1.3 0 .3 3.3.3 6.8.5 10.1 0 .2 0 .2-.3 0-.3zM152.7 142.1c-3.5-.5-7.3-.3-10.9 0-.1 0-.1.1 0 .3 3.5.3 7.5.5 10.9 0 .1-.1.1-.3 0-.3zM150.9 139.1c-3.5-.3-7.1-.3-10.5 0-.1 0-.1.3 0 .3 3.5.3 7.1.3 10.5 0 .2 0 .2-.3 0-.3zM150.9 136.1c-4-.1-8.1-.5-12.1 0-.1 0-.1.3 0 .3 4 .5 8.1.1 12.1 0 .3.2.3-.3 0-.3zM150 133.1c-3.3 0-6.8-.4-10.1 0-.1 0-.1.3 0 .3 3.3.4 6.8.1 10.1 0 .3 0 .3-.3 0-.3zM150.3 130.2c-3.1-.7-6.8-.5-10-.1-.1 0-.1.3 0 .3 3.1.5 6.9.7 10 0 .1-.1.1-.2 0-.2zM150 127.4c-1.3-.5-2.9-.3-4.4-.4-1.7 0-3.3 0-5.1.3-.3 0-.3.3 0 .3 1.7.3 3.3.3 5.1.3 1.5-.1 3.1-.1 4.4-.5zM149.9 124.2c-2.7-.8-6.1-.3-8.8 0-.1 0-.1.3 0 .3 2.7.3 6.1.8 8.8 0 .1.1.1-.3 0-.3zM150.3 121.1c-1.3-.4-2.8-.3-4.1-.3-1.6 0-3.1 0-4.7.1-.3 0-.3.3 0 .4 1.6.1 3.1.1 4.7.1 1.3 0 2.8.1 4.1-.3.1.3.1.3 0 0zM150.3 118.2c-2.8-.1-5.6-.3-8.3.1-.1 0-.1.3 0 .3 2.8.4 5.6.1 8.3 0 .2 0 .2-.4 0-.4zM150.5 115.1c-1.5-.1-2.9-.3-4.4-.3-1.3 0-2.7-.3-4 .1-.1 0-.1.3 0 .4 1.2.4 2.7.3 4 .3 1.5 0 2.9 0 4.4-.1.3.1.3-.1 0-.4zM150 112.2c-2.4-.3-4.8-.3-7.2 0-.1 0-.1.3 0 .3 2.4.3 4.8.5 7.2.3.3-.2.3-.6 0-.6zM152 109.1c-2.7-.5-6-.4-8.8 0-.1 0-.1.3 0 .3 2.7.4 6 .5 8.8 0 .1.2.1 0 0-.3zM150.5 106.2c-2.3-.3-4.7-.4-6.9 0-.1 0-.1.3 0 .3 2.3.4 4.7.4 6.9.1.3 0 .3-.4 0-.4zM150.1 100.2c-1.9-.4-4-.3-5.9.1-.1 0-.1.3 0 .3 1.9.4 4 .4 5.9 0 .3 0 .3-.2 0-.4zM150.1 103.1c-2-.4-4-.1-6 .1-.1 0-.3.3 0 .3 2 .3 4 .4 6 .1.2.2.2-.2 0-.5zM150 97.4c-1.6-.4-3.6-.1-5.3.1-.1 0-.1.3 0 .3 1.6.3 3.6.5 5.3 0 .3 0 .3-.4 0-.4zM150 94.2c-1.5-.3-3.2-.3-4.7.1-.1 0-.1.3 0 .4 1.5.4 3.2.3 4.7 0 .1.1.1-.3 0-.5zM150.7 91.4c-.8-.4-1.6-.3-2.4-.3-.9 0-1.7.1-2.7.3-.1 0-.1.3 0 .3.9.1 1.7.3 2.7.3.8 0 1.7 0 2.4-.3.1-.1.1-.3 0-.3zM150.8 88.4c-.7-.3-1.5-.3-2.3-.3s-1.7 0-2.5.3c-.1 0-.1.3 0 .4.8.1 1.6.1 2.5.1.8 0 1.6 0 2.3-.3.1 0 .1 0 0-.2zM150.9 85.4c-1.3-.7-3.3-.3-4.8 0-.1 0-.1.3 0 .4 1.5.3 3.3.7 4.8 0 .2 0 .2-.4 0-.4zM151.5 82.4c-1.3-.5-3.3-.3-4.7 0-.1 0-.1.3 0 .3 1.5.3 3.3.5 4.7 0 .1.1.1-.1 0-.3zM150.9 79.4c-.5-.3-1.2-.3-1.9-.3s-1.3 0-2 .3c-.1 0-.1.3 0 .3.7.3 1.3.3 2 .3s1.3 0 1.9-.3c.2.1.2-.1 0-.3zM150.3 76.4c-.8-.3-1.9 0-2.7.1-.1 0-.1.3 0 .3.8.1 1.9.4 2.7.1.2-.1.2-.3 0-.5zM150 73.4c-.7-.3-1.6-.3-2.3.1-.1 0-.1.3 0 .3.7.3 1.6.4 2.3 0 .3.1.3-.2 0-.4zM150.5 70.6c-.7-.4-1.6-.1-2.3 0-.1 0-.1.3 0 .3.7.3 1.7.5 2.3 0 .2-.1.2-.3 0-.3zM150.4 67.4c-.7-.1-1.3-.1-2 0-.1 0-.1.3 0 .3.7.1 1.3.1 2 0 .3.2.3-.1 0-.3z"/></g></g></svg>